{"title":"Bath.Salt.Zombies.2013.WEBRip XViD juggs","uid":8279171,"size":742953451,"categoryP":"video","categoryS":"movies","magnet":"?xt=urn:btih:0d2e1318fedeb900b84abfa7ac8e219af6124421&amp;dn=Bath.Salt.Zombies.2013.WEBRip+XViD+juggs&amp;tr=udp%3A%2F%2Ftracker.openbittorrent.com%3A80&amp;tr=udp%3A%2F%2Fopen.demonii.com%3A1337&amp;tr=udp%3A%2F%2Ftracker.coppersurfer.tk%3A6969&amp;tr=udp%3A%2F%2Fexodus.desync.com%3A6969","seeders":0,"leechers":2,"uploader":"juggs99","files":3,"time":1363792907,"description":"Source : NGB(Thanks)\n &lt;a href=&quot;\nhttp://www.imdb.com/title/tt2691554/&quot; rel=&quot;nofollow&quot; target=&quot;_NEW&quot;&gt;\nhttp://www.imdb.com/title/tt2691554/&lt;/a&gt;\n\n\nFormat : AVI\nFormat/Info : Audio Video Interleave\nFile size : 699 MiB\nDuration : 1h 9mn\nOverall bit rate : 1 399 Kbps\nWriting library : VirtualDub build 32842/release\n\nVideo\nID : 0\nFormat : MPEG-4 Visual\nFormat profile : Advanced Simple@L5\nFormat settings, BVOP : 4\nFormat settings, QPel : No\nFormat settings, GMC : No warppoints\nFormat settings, Matrix : Default (H.263)\nMuxing mode : Packed bitstream\nCodec ID : XVID\nCodec ID/Hint : XviD\nDuration : 1h 9mn\nBit rate : 1 262 Kbps\nWidth : 640 pixels\nHeight : 352 pixels\nDisplay aspect ratio : 16:9\nFrame rate : 23.976 fps\nColor space : YUV\nChroma subsampling : 4:2:0\nBit depth : 8 bits\nScan type : Progressive\nCompression mode : Lossy\nBits/(Pixel*Frame) : 0.234\nStream size : 630 MiB (90%)\nWriting library : XviD 64\n\nAudio\nID : 1\nFormat : MPEG Audio\nFormat version : Version 1\nFormat profile : Layer 3\nCodec ID : 55\nCodec ID/Hint : MP3\nDuration : 1h 9mn\nBit rate mode : Constant\nBit rate : 128 Kbps\nChannel(s) : 2 channels\nSampling rate : 44.1 KHz\nCompression mode : Lossy\nStream size : 63.9 MiB (9%)\nAlignment : Split accross interleaves\nInterleave, duration : 42 ms (1.00 video frame)\nInterleave, preload duration : 500 ms\nWriting library : LAME3.99r\nEncoding settings : -m s -V 4 -q 3 -lowpass 17 -b 128\n\nPlot\nIn New York City, potent strands of bath salts have surfaced and have attracted the most devoted bath salt junkies. A young aspiring chemist has developed an even stronger batch... but something has gone horribly wrong.\n\n &lt;a href=&quot;\nhttp://www.shotpix.com/images/11894893057366045616.png&quot; rel=&quot;nofollow&quot; target=&quot;_NEW&quot;&gt;\nhttp://www.shotpix.com/images/11894893057366045616.png&lt;/a&gt; &lt;a href=&quot;\nhttp://www.shotpix.com/images/46796506603498227539.png&quot; rel=&quot;nofollow&quot; target=&quot;_NEW&quot;&gt;\nhttp://www.shotpix.com/images/46796506603498227539.png&lt;/a&gt; &lt;a href=&quot;\nhttp://www.shotpix.com/images/04711120276523478250.png&quot; rel=&quot;nofollow&quot; target=&quot;_NEW&quot;&gt;\nhttp://www.shotpix.com/images/04711120276523478250.png&lt;/a&gt;","torrent":{"xt":"urn:btih:0d2e1318fedeb900b84abfa7ac8e219af6124421","amp;dn":"Bath.Salt.Zombies.2013.WEBRip+XViD+juggs","amp;tr":["udp%3A%2F%2Ftracker.openbittorrent.com%3A80","udp%3A%2F%2Fopen.demonii.com%3A1337","udp%3A%2F%2Ftracker.coppersurfer.tk%3A6969","udp%3A%2F%2Fexodus.desync.com%3A6969"],"infoHash":"0d2e1318fedeb900b84abfa7ac8e219af6124421","infoHashBuffer":{"type":"Buffer","data":[13,46,19,24,254,222,185,0,184,74,191,167,172,142,33,154,246,18,68,33]},"announce":[],"urlList":[]}}